<mxfile host="app.diagrams.net" agent="Mozilla/5.0 (Windows NT 10.0; Win64; x64) AppleWebKit/537.36 (KHTML, like Gecko) Chrome/130.0.0.0 Safari/537.36" version="24.7.17">
  <diagram name="Page-1" id="cjQiP9H5Jaytnckqm-fU">
    <mxGraphModel dx="1595" dy="1092" grid="1" gridSize="10" guides="1" tooltips="1" connect="1" arrows="1" fold="1" page="0" pageScale="1" pageWidth="850" pageHeight="1100" math="0" shadow="0">
      <root>
        <mxCell id="0" />
        <mxCell id="1" parent="0" />
        <mxCell id="NO1YWfpP7dUWJz_9BF3X-1" value="Wandering the maze" style="rounded=1;whiteSpace=wrap;html=1;" vertex="1" parent="1">
          <mxGeometry x="-280" y="-160" width="120" height="40" as="geometry" />
        </mxCell>
        <mxCell id="NO1YWfpP7dUWJz_9BF3X-2" value="" style="endArrow=classic;html=1;rounded=0;fontSize=12;startSize=8;endSize=8;curved=1;exitX=0.5;exitY=1;exitDx=0;exitDy=0;" edge="1" parent="1" source="NO1YWfpP7dUWJz_9BF3X-1">
          <mxGeometry width="50" height="50" relative="1" as="geometry">
            <mxPoint x="-160" y="-140" as="sourcePoint" />
            <mxPoint x="-220" y="-40" as="targetPoint" />
          </mxGeometry>
        </mxCell>
        <mxCell id="NO1YWfpP7dUWJz_9BF3X-7" value="Within 5 node of the player" style="edgeLabel;html=1;align=center;verticalAlign=middle;resizable=0;points=[];fontSize=12;" vertex="1" connectable="0" parent="NO1YWfpP7dUWJz_9BF3X-2">
          <mxGeometry x="-0.4042" relative="1" as="geometry">
            <mxPoint as="offset" />
          </mxGeometry>
        </mxCell>
        <mxCell id="NO1YWfpP7dUWJz_9BF3X-3" value="Following the player" style="rounded=1;whiteSpace=wrap;html=1;" vertex="1" parent="1">
          <mxGeometry x="-280" y="-40" width="120" height="40" as="geometry" />
        </mxCell>
        <mxCell id="NO1YWfpP7dUWJz_9BF3X-5" value="" style="curved=0;endArrow=classic;html=1;rounded=0;fontSize=12;startSize=8;endSize=8;exitX=1;exitY=0.5;exitDx=0;exitDy=0;entryX=1;entryY=0.5;entryDx=0;entryDy=0;" edge="1" parent="1" source="NO1YWfpP7dUWJz_9BF3X-3" target="NO1YWfpP7dUWJz_9BF3X-1">
          <mxGeometry width="50" height="50" relative="1" as="geometry">
            <mxPoint x="-130" y="-10" as="sourcePoint" />
            <mxPoint x="-80" y="-60" as="targetPoint" />
            <Array as="points">
              <mxPoint x="-100" y="-20" />
              <mxPoint x="-100" y="-140" />
            </Array>
          </mxGeometry>
        </mxCell>
        <mxCell id="NO1YWfpP7dUWJz_9BF3X-6" value="7 nodes away from the player" style="edgeLabel;html=1;align=center;verticalAlign=middle;resizable=0;points=[];fontSize=12;" vertex="1" connectable="0" parent="NO1YWfpP7dUWJz_9BF3X-5">
          <mxGeometry x="0.0097" relative="1" as="geometry">
            <mxPoint y="21" as="offset" />
          </mxGeometry>
        </mxCell>
      </root>
    </mxGraphModel>
  </diagram>
</mxfile>
